<svg id="visual" viewBox="0 0 1920 1080" width="1920" height="1080" xmlns="http://www.w3.org/2000/svg" xmlns:xlink="http://www.w3.org/1999/xlink" version="1.1"><rect x="0" y="0" width="1920" height="1080" fill="#FFFFFF"></rect><path d="M0 816L45.7 801.8C91.3 787.7 182.7 759.3 274.2 750.7C365.7 742 457.3 753 548.8 776.2C640.3 799.3 731.7 834.7 823 850C914.3 865.3 1005.7 860.7 1097 854.7C1188.3 848.7 1279.7 841.3 1371.2 815.8C1462.7 790.3 1554.3 746.7 1645.8 735.5C1737.3 724.3 1828.7 745.7 1874.3 756.3L1920 767L1920 1081L1874.3 1081C1828.7 1081 1737.3 1081 1645.8 1081C1554.3 1081 1462.7 1081 1371.2 1081C1279.7 1081 1188.3 1081 1097 1081C1005.7 1081 914.3 1081 823 1081C731.7 1081 640.3 1081 548.8 1081C457.3 1081 365.7 1081 274.2 1081C182.7 1081 91.3 1081 45.7 1081L0 1081Z" fill="#598f1e" stroke-linecap="round" stroke-linejoin="miter"></path></svg>